<svg width="100" height="100" viewBox="0 0 100 100" fill="none" xmlns="http://www.w3.org/2000/svg">
  <!-- Right Leg (Darker, behind) -->
  <path d="M 50 10 L 75 90 L 100 90 L 60 10 Z" fill="#5b21b6" />

  <!-- Left Leg 3D (Front Face) -->
  <path d="M 40 10 L 0 90 L 14 90 L 45 10 Z" fill="#a855f7" />

  <!-- Left Leg 3D (Side Face, darker) -->
  <path d="M 45 10 L 14 90 L 25 90 L 50 10 Z" fill="#7c3aed" />

  <!-- Database Disks (Stacked inside) -->
  <g stroke="#09090b" stroke-width="3.5" stroke-linejoin="round">
    <!-- Bottom Disk -->
    <path d="M 29 74 v 14 a 21 7 0 0 0 42 0 v -14 Z" fill="#4c1d95" />
    <ellipse cx="50" cy="74" rx="21" ry="7" fill="#7c3aed" />

    <!-- Middle Disk -->
    <path d="M 29 58 v 14 a 21 7 0 0 0 42 0 v -14 Z" fill="#4c1d95" />
    <ellipse cx="50" cy="58" rx="21" ry="7" fill="#8b5cf6" />

    <!-- Top Disk -->
    <path d="M 29 42 v 14 a 21 7 0 0 0 42 0 v -14 Z" fill="#4c1d95" />
    <ellipse cx="50" cy="42" rx="21" ry="7" fill="#a855f7" />
  </g>
</svg>